<svg width="153" height="38" fill="none" xmlns="http://www.w3.org/2000/svg"><path fill="#1AD3B2" d="M13.79 1.149h6.895v6.895H13.79zM20.684 8.044h6.895v6.895h-6.895zM27.579 14.939h6.895v6.895h-6.895zM20.684 21.833h6.895v6.895h-6.895z"/><path fill="#13126C" d="M13.79 28.728h6.895v6.895H13.79zM6.895 21.833h6.895v6.895H6.895zM0 14.939h6.895v6.895H0zM6.895 8.044h6.895v6.895H6.895z"/><path fill-rule="evenodd" clip-rule="evenodd" d="M131.828 15.296v-.762c-.781-.058-1.094-.136-1.094-.761V0h-.606l-4.083.899v.586l1.075.547v11.74c0 .626-.313.704-1.094.762v.762h5.802Zm-52.093.196c1.915 0 3.653-.47 4.786-1.27l.332-3.888h-.976c-.782 2.97-2.032 4.122-3.653 4.122-2.403 0-3.654-2.617-3.654-6.193 0-3.301 1.016-5.9 3.458-5.9 1.817 0 2.852 1.27 3.34 3.595h.958l-.059-3.418c-1.113-.743-2.598-1.153-4.356-1.153-4.063 0-7.385 2.833-7.385 7.423 0 4.122 2.755 6.682 7.21 6.682Zm-31.867-.196v-.82c-1.055-.059-1.602-.274-1.602-.918 0-.196.059-.43.156-.723l.665-1.778h4.981l.703 1.797c.098.293.157.528.157.723 0 .664-.547.86-1.524.899v.82H58.3v-.82c-.567-.078-.957-.215-1.153-.723l-4.864-12.21H48.2l.664 1.622-4.063 10.588c-.215.527-.606.645-1.133.723v.82h4.2Zm3.77-5.294h-4.16l2.03-5.41 2.13 5.41Zm19.929 1.583c0 2.52-1.895 3.711-5.49 3.711h-7.286v-.82c1.309-.137 1.426-.293 1.426-1.309V3.712c0-1.016-.117-1.172-1.426-1.309v-.82h7.091c3.028 0 4.806 1.152 4.806 3.418 0 1.973-1.778 2.97-3.673 3.165 2.598.078 4.552 1.27 4.552 3.419Zm-7.033-3.888h-.488V2.501h.468c1.563 0 2.54.8 2.54 2.54 0 1.757-.86 2.656-2.52 2.656Zm.88 6.681h.155c1.348 0 2.286-.899 2.286-2.852 0-1.778-.977-2.774-2.95-2.774h-.86v4.298c0 1.055.352 1.328 1.368 1.328Zm30.266.098v.82H89.02v-.82c1.309-.137 1.426-.293 1.426-1.309V3.712c0-1.016-.117-1.172-1.426-1.309v-.82h6.661v.82c-1.289.137-1.406.293-1.406 1.309v4.024h4.962V3.712c0-1.016-.117-1.172-1.426-1.309v-.82h6.661v.82c-1.289.137-1.406.293-1.406 1.309l.001 9.594c.013.892.177 1.04 1.405 1.17v.82H97.81v-.82c1.309-.137 1.426-.293 1.426-1.309v-4.22h-4.962v4.36c.014.89.178 1.039 1.406 1.169Zm14.517 1.016c2.462 0 3.966-1.426 4.494-3.575l-.372-.235c-.742.977-1.66 1.426-2.91 1.426-1.778 0-3.067-1.445-3.028-3.77h6.231V8.85c0-2.481-1.445-4.279-4.278-4.279-2.813 0-5.216 2.228-5.216 5.705 0 3.282 2.188 5.216 5.079 5.216Zm-1.796-7.053h3.125c0-1.895-.371-3.047-1.426-3.047-1.074 0-1.602 1.23-1.699 3.047Zm14.868 7.053c1.094 0 1.934-.41 2.579-1.055l-.137-.528a1.841 1.841 0 0 1-.664.118c-.469 0-.528-.41-.528-.88V7.972c0-2.54-1.641-3.4-4.376-3.4-2.363 0-4.2.821-4.2 2.599 0 .703.391 1.172.957 1.367l2.169-.293c-.098-.469-.176-.918-.176-1.367 0-.918.293-1.544 1.055-1.544s1.016.606 1.016 1.505V8.83l-3.106 1.094c-1.387.489-2.579 1.192-2.579 2.892 0 1.68 1.153 2.617 2.794 2.617 1.445 0 2.383-.762 2.949-1.582.293 1.035 1.114 1.64 2.247 1.64Zm-4.512-3.673c0 .996.371 1.739 1.348 1.739.312 0 .547-.098.859-.274V9.67l-1.074.41c-.684.254-1.133.626-1.133 1.739Zm20.888 1.758c-.743 1.212-1.837 1.915-3.399 1.915-1.798 0-3.048-.899-3.048-3.204V5.822h-1.113v-.645c1.562-.586 2.969-1.719 3.985-3.067h.762v2.657h2.285v1.055h-2.285v6.466c0 .938.371 1.348 1.113 1.348.508 0 .938-.176 1.407-.488l.293.43Zm5.98 1.72v-.763c-.782-.058-1.036-.136-1.036-.761V7.13c.489-.253 1.036-.43 1.661-.43 1.016 0 1.309.509 1.309 1.368v5.705c0 .625-.254.703-1.036.761v.762h5.744v-.762c-.782-.058-1.094-.136-1.094-.761V7.775c0-2.13-1.075-3.204-2.95-3.204-1.778 0-2.892 1.016-3.634 1.954V0h-.605l-4.083.899v.586l1.074.547v11.74c0 .626-.312.704-1.094.762v.762h5.744Zm-91.35 14.186c0 3.008-2.402 4.395-5.333 4.395-1.953 0-3.672-.586-4.59-1.309l-.215-3.399h1.035c.488 2.188 1.797 3.77 3.77 3.77 1.387 0 2.286-.664 2.286-1.875 0-1.27-.82-1.817-2.99-2.481-2.597-.762-4.023-2.032-4.023-4.395 0-2.716 2.07-4.416 4.962-4.416 1.777 0 3.262.47 4.22 1.173v2.969h-.88c-.45-1.973-1.524-3.223-3.34-3.223-1.212 0-2.013.703-2.013 1.816 0 1.27.782 1.798 2.794 2.403 2.598.801 4.317 1.837 4.317 4.572ZM57.658 38c1.367 0 2.09-.899 2.813-2.618l4.454-10.686c.175-.43.332-.566.996-.781v-.762h-3.556v.762c1.016.137 1.29.254 1.29.684 0 .162-.05.29-.134.509l-.022.057-1.934 4.962-2.052-4.981-.036-.108c-.06-.172-.1-.292-.1-.44 0-.43.254-.546 1.289-.683v-.762h-6.251v.762c.683.215.8.352.996.781l4.454 9.475-.313.684c-.351.82-.918 1.133-2.012 1.133-.53 0-.91-.075-1.338-.16h-.003a31.67 31.67 0 0 0-.182-.036v1.387c.273.508.879.821 1.64.821Zm16.548-7.697c0 2.286-1.7 3.575-4.337 3.575-1.62 0-2.871-.39-3.711-.996l-.117-2.638h.898c.39 1.602 1.407 2.813 2.93 2.813.919 0 1.661-.449 1.661-1.328 0-.996-.762-1.328-2.09-1.758-2.208-.684-3.4-1.602-3.4-3.595 0-2.188 1.68-3.418 4.025-3.418 1.328 0 2.52.351 3.36.898v2.345h-.84c-.234-1.29-1.094-2.423-2.461-2.423-.84 0-1.407.469-1.407 1.211 0 .82.586 1.153 1.875 1.602 2.345.782 3.614 1.582 3.614 3.712Zm4.672 3.575c1.563 0 2.656-.703 3.399-1.915l-.293-.43c-.469.313-.899.489-1.407.489-.742 0-1.113-.41-1.113-1.348v-6.466h2.285v-1.055h-2.285v-2.657h-.762c-1.016 1.348-2.422 2.481-3.985 3.067v.645h1.113v6.466c0 2.305 1.25 3.204 3.048 3.204Zm13.169-3.575c-.528 2.149-2.032 3.575-4.493 3.575-2.892 0-5.08-1.934-5.08-5.216 0-3.477 2.403-5.704 5.216-5.704 2.833 0 4.279 1.797 4.279 4.278v.488h-6.232c-.04 2.325 1.25 3.77 3.028 3.77 1.25 0 2.168-.449 2.91-1.425l.372.234Zm-3.165-3.477h-3.126c.098-1.817.626-3.048 1.7-3.048 1.055 0 1.426 1.153 1.426 3.048Zm9.458 6.095v.761h-5.685v-.761c.781-.059 1.094-.137 1.094-.762v-6.857l-1.075-.664v-.547l4.083-1.134h.664l-.078 1.993c.743-1.074 1.798-1.992 3.536-1.992 1.504 0 2.442.605 2.716 2.031.703-1.055 1.895-2.032 3.575-2.032 1.816 0 2.832 1.055 2.832 3.107v6.095c0 .625.313.703 1.075.762v.761h-5.666v-.761c.782-.059.977-.137.977-.762v-5.763c0-.84-.273-1.329-1.172-1.329-.586 0-1.055.215-1.543.45v6.642c0 .625.195.703.977.762v.761h-5.568v-.761c.781-.059.977-.137.977-.762v-5.763c0-.84-.274-1.329-1.153-1.329-.605 0-1.074.196-1.563.45v6.642c0 .625.215.703.997.762Z" fill="#13126C"/></svg>